<?xml version="1.0" encoding="utf-8"?>
<svg viewBox="0 0 294.849 100.355" xmlns="http://www.w3.org/2000/svg">
  <rect style="stroke: rgb(0, 0, 0); fill: rgb(94, 23, 235); stroke-opacity: 0;" x="81.705" y="132.327" width="269.094" height="53.286" rx="25" ry="25" transform="matrix(0.984808, -0.173648, 0.173648, 0.984808, -98.919846, -64.828857)"/>
  <path d="M 141.467 177.686 Q 134.047 177.686 129.585 177.231 Q 125.122 176.776 121.902 175.288 Q 118.682 173.801 116.512 170.826 Q 114.167 167.431 114.167 161.341 Q 114.167 154.236 117.685 150.736 Q 121.202 147.236 127.537 147.236 Q 133.837 147.236 137.372 150.333 Q 140.907 153.431 140.907 159.591 Q 140.907 162.251 140.05 164.578 Q 139.192 166.906 137.092 168.866 L 137.267 169.216 L 141.467 169.216 L 141.467 177.686 Z M 127.537 169.216 Q 129.917 169.216 129.917 166.626 L 129.917 156.056 Q 129.917 153.466 127.537 153.466 Q 125.157 153.466 125.157 156.056 L 125.157 166.626 Q 125.157 169.216 127.537 169.216 Z" transform="matrix(0.984808, -0.173648, 0.173648, 0.984808, -121.909615, -62.663654)" style="fill: rgb(255, 105, 83); stroke: rgb(0, 0, 0); stroke-linecap: round; stroke-miterlimit: 8; text-transform: capitalize; white-space: pre;"/>
  <path d="M 155.798 175.446 Q 150.303 175.446 147.311 173.031 Q 144.318 170.616 144.318 165.191 L 144.318 153.466 L 142.568 153.466 L 142.568 147.726 L 155.518 147.726 L 155.518 153.466 L 154.118 153.466 L 154.118 166.976 Q 154.118 168.131 154.626 168.673 Q 155.133 169.216 156.148 169.216 Q 157.163 169.216 157.671 168.673 Q 158.178 168.131 158.178 166.976 L 158.178 153.466 L 156.778 153.466 L 156.778 147.726 L 168.783 147.726 L 168.783 153.466 L 167.033 153.466 L 167.033 165.191 Q 167.033 170.616 164.128 173.031 Q 161.223 175.446 155.798 175.446 Z" transform="matrix(0.984808, -0.173648, 0.173648, 0.984808, -121.909615, -62.663654)" style="fill: rgb(255, 105, 83); stroke: rgb(0, 0, 0); stroke-linecap: round; stroke-miterlimit: 8; text-transform: capitalize; white-space: pre;"/>
  <path d="M 170.039 174.956 L 170.039 169.216 L 171.789 169.216 L 171.789 153.466 L 170.039 153.466 L 170.039 147.726 L 193.664 147.726 L 193.664 158.296 L 185.824 158.296 L 185.824 153.466 L 181.589 153.466 L 181.589 158.996 L 184.669 158.996 L 184.669 162.986 L 181.589 162.986 L 181.589 169.216 L 185.824 169.216 L 185.824 163.686 L 193.664 163.686 L 193.664 174.956 Z" transform="matrix(0.984808, -0.173648, 0.173648, 0.984808, -121.909615, -62.663654)" style="fill: rgb(255, 105, 83); stroke: rgb(0, 0, 0); stroke-linecap: round; stroke-miterlimit: 8; text-transform: capitalize; white-space: pre;"/>
  <path d="M 216.331 175.446 Q 212.971 175.446 209.978 174.868 Q 206.986 174.291 205.376 173.556 L 205.376 166.626 L 213.076 166.626 Q 213.076 167.711 213.566 168.201 Q 214.056 168.691 215.351 168.691 Q 216.436 168.691 216.908 168.358 Q 217.381 168.026 217.381 167.361 Q 217.381 166.801 216.926 166.398 Q 216.471 165.996 215.351 165.576 L 212.341 164.526 Q 208.456 163.056 206.758 161.061 Q 205.061 159.066 205.061 155.671 Q 205.061 151.541 207.773 149.388 Q 210.486 147.236 216.821 147.236 Q 219.866 147.236 222.543 147.848 Q 225.221 148.461 226.866 149.476 L 226.866 155.741 L 219.866 155.741 Q 219.866 153.991 217.696 153.991 Q 216.646 153.991 216.208 154.253 Q 215.771 154.516 215.771 155.181 Q 215.771 155.776 216.278 156.126 Q 216.786 156.476 217.941 156.861 L 220.986 157.911 Q 224.696 159.171 226.393 161.183 Q 228.091 163.196 228.091 166.451 Q 228.091 170.896 225.098 173.171 Q 222.106 175.446 216.331 175.446 Z" transform="matrix(0.984808, -0.173648, 0.173648, 0.984808, -121.909615, -62.663654)" style="fill: rgb(255, 105, 83); stroke: rgb(0, 0, 0); stroke-linecap: round; stroke-miterlimit: 8; text-transform: capitalize; white-space: pre;"/>
  <path d="M 254.752 169.216 L 256.152 169.216 L 256.152 174.956 L 242.432 174.956 L 242.432 169.216 L 244.532 169.216 L 243.972 166.416 L 239.212 166.416 L 238.652 169.216 L 240.752 169.216 L 240.752 174.956 L 228.782 174.956 L 228.782 169.216 L 230.182 169.216 L 236.097 147.726 L 248.837 147.726 Z M 239.982 162.706 L 243.202 162.706 L 241.767 155.741 L 241.417 155.741 Z" transform="matrix(0.984808, -0.173648, 0.173648, 0.984808, -121.909615, -62.663654)" style="fill: rgb(255, 105, 83); stroke: rgb(0, 0, 0); stroke-linecap: round; stroke-miterlimit: 8; text-transform: capitalize; white-space: pre;"/>
  <path d="M 257.268 174.956 L 257.268 169.216 L 259.018 169.216 L 259.018 153.466 L 257.268 153.466 L 257.268 147.726 L 270.568 147.726 L 270.568 153.466 L 268.818 153.466 L 268.818 169.216 L 270.568 169.216 L 270.568 174.956 Z" transform="matrix(0.984808, -0.173648, 0.173648, 0.984808, -121.909615, -62.663654)" style="fill: rgb(255, 105, 83); stroke: rgb(0, 0, 0); stroke-linecap: round; stroke-miterlimit: 8; text-transform: capitalize; white-space: pre;"/>
  <path d="M 282.807 175.446 Q 279.447 175.446 276.455 174.868 Q 273.462 174.291 271.852 173.556 L 271.852 166.626 L 279.552 166.626 Q 279.552 167.711 280.042 168.201 Q 280.532 168.691 281.827 168.691 Q 282.912 168.691 283.385 168.358 Q 283.857 168.026 283.857 167.361 Q 283.857 166.801 283.402 166.398 Q 282.947 165.996 281.827 165.576 L 278.817 164.526 Q 274.932 163.056 273.235 161.061 Q 271.537 159.066 271.537 155.671 Q 271.537 151.541 274.25 149.388 Q 276.962 147.236 283.297 147.236 Q 286.342 147.236 289.02 147.848 Q 291.697 148.461 293.342 149.476 L 293.342 155.741 L 286.342 155.741 Q 286.342 153.991 284.172 153.991 Q 283.122 153.991 282.685 154.253 Q 282.247 154.516 282.247 155.181 Q 282.247 155.776 282.755 156.126 Q 283.262 156.476 284.417 156.861 L 287.462 157.911 Q 291.172 159.171 292.87 161.183 Q 294.567 163.196 294.567 166.451 Q 294.567 170.896 291.575 173.171 Q 288.582 175.446 282.807 175.446 Z" transform="matrix(0.984808, -0.173648, 0.173648, 0.984808, -121.909615, -62.663654)" style="fill: rgb(255, 105, 83); stroke: rgb(0, 0, 0); stroke-linecap: round; stroke-miterlimit: 8; text-transform: capitalize; white-space: pre;"/>
  <path d="M 332.149 156.196 L 326.129 156.196 L 326.129 153.466 L 323.889 153.466 L 323.889 169.216 L 326.339 169.216 L 326.339 174.956 L 311.639 174.956 L 311.639 169.216 L 314.089 169.216 L 314.089 153.466 L 311.849 153.466 L 311.849 156.196 L 305.829 156.196 L 305.829 147.726 L 332.149 147.726 Z" transform="matrix(0.984808, -0.173648, 0.173648, 0.984808, -121.909615, -62.663654)" style="fill: rgb(255, 105, 83); stroke: rgb(0, 0, 0); stroke-linecap: round; stroke-miterlimit: 8; text-transform: capitalize; white-space: pre;"/>
  <path d="M 346.413 175.446 Q 340.918 175.446 337.926 173.031 Q 334.933 170.616 334.933 165.191 L 334.933 153.466 L 333.183 153.466 L 333.183 147.726 L 346.133 147.726 L 346.133 153.466 L 344.733 153.466 L 344.733 166.976 Q 344.733 168.131 345.241 168.673 Q 345.748 169.216 346.763 169.216 Q 347.778 169.216 348.286 168.673 Q 348.793 168.131 348.793 166.976 L 348.793 153.466 L 347.393 153.466 L 347.393 147.726 L 359.398 147.726 L 359.398 153.466 L 357.648 153.466 L 357.648 165.191 Q 357.648 170.616 354.743 173.031 Q 351.838 175.446 346.413 175.446 Z" transform="matrix(0.984808, -0.173648, 0.173648, 0.984808, -121.909615, -62.663654)" style="fill: rgb(255, 105, 83); stroke: rgb(0, 0, 0); stroke-linecap: round; stroke-miterlimit: 8; text-transform: capitalize; white-space: pre;"/>
  <rect style="stroke: rgb(0, 0, 0); fill: rgb(255, 251, 224); stroke-opacity: 0;" transform="matrix(0.996195, 0.087155, -0.087155, 0.996195, -58.696945, -134.229736)" x="322.38" y="143.872" width="45.293" height="47.069" rx="10" ry="10"/>
  <path d="M 119.032 165.681 Q 119.032 164.106 119.61 162.933 Q 120.187 161.761 120.992 161.026 Q 121.797 160.291 123.057 159.416 Q 124.317 158.541 124.912 157.911 Q 125.507 157.281 125.507 156.406 Q 125.507 155.006 123.407 155.006 Q 121.762 155.006 119.732 155.636 Q 117.702 156.266 116.022 157.071 L 114.167 149.931 Q 116.477 148.846 119.522 148.041 Q 122.567 147.236 125.577 147.236 Q 128.552 147.236 130.775 148.128 Q 132.997 149.021 134.187 150.666 Q 135.377 152.311 135.377 154.481 Q 135.377 156.371 134.765 157.666 Q 134.152 158.961 133.277 159.783 Q 132.402 160.606 130.967 161.586 Q 129.777 162.426 129.06 163.056 Q 128.342 163.686 127.87 164.596 Q 127.397 165.506 127.397 166.766 L 127.397 167.291 L 119.032 167.291 Z M 119.032 174.956 L 119.032 169.216 L 127.362 169.216 L 127.362 174.956 Z" transform="matrix(0.984808, 0.173648, -0.173648, 0.984808, 174.543533, -117.181435)" style="fill: rgb(255, 105, 83); stroke: rgb(0, 0, 0); stroke-linecap: round; stroke-miterlimit: 8; text-transform: capitalize; white-space: pre;"/>
</svg>