<?xml version="1.0" encoding="utf-8"?>
<svg viewBox="0 0 247.688 85.304" xmlns="http://www.w3.org/2000/svg">
  <rect style="stroke: rgb(0, 0, 0); fill: rgb(94, 23, 235); stroke-opacity: 0;" x="66.909" y="132.327" width="220.364" height="53.286" rx="25" ry="25" transform="matrix(0.984808, -0.173648, 0.173648, 0.984808, -91.785416, -83.288834)"/>
  <path d="M 127.537 175.446 Q 121.132 175.446 117.65 172.086 Q 114.167 168.726 114.167 161.341 Q 114.167 153.956 117.65 150.596 Q 121.132 147.236 127.537 147.236 Q 133.942 147.236 137.425 150.596 Q 140.907 153.956 140.907 161.341 Q 140.907 168.726 137.425 172.086 Q 133.942 175.446 127.537 175.446 Z M 127.537 169.216 Q 128.727 169.216 129.322 168.586 Q 129.917 167.956 129.917 166.626 L 129.917 156.056 Q 129.917 154.726 129.322 154.096 Q 128.727 153.466 127.537 153.466 Q 126.347 153.466 125.752 154.096 Q 125.157 154.726 125.157 156.056 L 125.157 166.626 Q 125.157 167.991 125.752 168.603 Q 126.347 169.216 127.537 169.216 Z" transform="matrix(0.984808, -0.173648, 0.173648, 0.984808, -124.72155, -80.60984)" style="fill: rgb(255, 105, 83); stroke: rgb(0, 0, 0); stroke-linecap: round; stroke-miterlimit: 8; text-transform: capitalize; white-space: pre;"/>
  <path d="M 155.172 175.446 Q 149.677 175.446 146.685 173.031 Q 143.692 170.616 143.692 165.191 L 143.692 153.466 L 141.942 153.466 L 141.942 147.726 L 154.892 147.726 L 154.892 153.466 L 153.492 153.466 L 153.492 166.976 Q 153.492 168.131 154 168.673 Q 154.507 169.216 155.522 169.216 Q 156.537 169.216 157.045 168.673 Q 157.552 168.131 157.552 166.976 L 157.552 153.466 L 156.152 153.466 L 156.152 147.726 L 168.157 147.726 L 168.157 153.466 L 166.407 153.466 L 166.407 165.191 Q 166.407 170.616 163.502 173.031 Q 160.597 175.446 155.172 175.446 Z" transform="matrix(0.984808, -0.173648, 0.173648, 0.984808, -124.72155, -80.60984)" style="fill: rgb(255, 105, 83); stroke: rgb(0, 0, 0); stroke-linecap: round; stroke-miterlimit: 8; text-transform: capitalize; white-space: pre;"/>
  <path d="M 194.598 147.726 L 206.288 147.726 L 206.288 153.466 L 204.888 153.466 L 198.623 174.956 L 187.283 174.956 L 181.018 153.466 L 179.618 153.466 L 179.618 147.726 L 193.058 147.726 L 193.058 153.466 L 191.238 153.466 L 193.653 165.191 L 194.003 165.191 L 196.418 153.466 L 194.598 153.466 Z" transform="matrix(0.984808, -0.173648, 0.173648, 0.984808, -124.72155, -80.60984)" style="fill: rgb(255, 105, 83); stroke: rgb(0, 0, 0); stroke-linecap: round; stroke-miterlimit: 8; text-transform: capitalize; white-space: pre;"/>
  <path d="M 228.887 169.216 L 230.287 169.216 L 230.287 174.956 L 216.567 174.956 L 216.567 169.216 L 218.667 169.216 L 218.107 166.416 L 213.347 166.416 L 212.787 169.216 L 214.887 169.216 L 214.887 174.956 L 202.917 174.956 L 202.917 169.216 L 204.317 169.216 L 210.232 147.726 L 222.972 147.726 Z M 214.117 162.706 L 217.337 162.706 L 215.902 155.741 L 215.552 155.741 Z" transform="matrix(0.984808, -0.173648, 0.173648, 0.984808, -124.72155, -80.60984)" style="fill: rgb(255, 105, 83); stroke: rgb(0, 0, 0); stroke-linecap: round; stroke-miterlimit: 8; text-transform: capitalize; white-space: pre;"/>
  <path d="M 268.013 156.196 L 261.993 156.196 L 261.993 153.466 L 259.753 153.466 L 259.753 169.216 L 262.203 169.216 L 262.203 174.956 L 247.503 174.956 L 247.503 169.216 L 249.953 169.216 L 249.953 153.466 L 247.713 153.466 L 247.713 156.196 L 241.693 156.196 L 241.693 147.726 L 268.013 147.726 Z" transform="matrix(0.984808, -0.173648, 0.173648, 0.984808, -124.72155, -80.60984)" style="fill: rgb(255, 105, 83); stroke: rgb(0, 0, 0); stroke-linecap: round; stroke-miterlimit: 8; text-transform: capitalize; white-space: pre;"/>
  <path d="M 282.277 175.446 Q 276.782 175.446 273.789 173.031 Q 270.797 170.616 270.797 165.191 L 270.797 153.466 L 269.047 153.466 L 269.047 147.726 L 281.997 147.726 L 281.997 153.466 L 280.597 153.466 L 280.597 166.976 Q 280.597 168.131 281.104 168.673 Q 281.612 169.216 282.627 169.216 Q 283.642 169.216 284.149 168.673 Q 284.657 168.131 284.657 166.976 L 284.657 153.466 L 283.257 153.466 L 283.257 147.726 L 295.262 147.726 L 295.262 153.466 L 293.512 153.466 L 293.512 165.191 Q 293.512 170.616 290.607 173.031 Q 287.702 175.446 282.277 175.446 Z" transform="matrix(0.984808, -0.173648, 0.173648, 0.984808, -124.72155, -80.60984)" style="fill: rgb(255, 105, 83); stroke: rgb(0, 0, 0); stroke-linecap: round; stroke-miterlimit: 8; text-transform: capitalize; white-space: pre;"/>
  <rect style="stroke: rgb(0, 0, 0); fill: rgb(255, 251, 224); stroke-opacity: 0;" transform="matrix(0.996195, 0.087155, -0.087155, 0.996195, -106.215958, -148.064941)" x="322.38" y="143.872" width="45.293" height="47.069" rx="10" ry="10"/>
  <path d="M 119.032 165.681 Q 119.032 164.106 119.61 162.933 Q 120.187 161.761 120.992 161.026 Q 121.797 160.291 123.057 159.416 Q 124.317 158.541 124.912 157.911 Q 125.507 157.281 125.507 156.406 Q 125.507 155.006 123.407 155.006 Q 121.762 155.006 119.732 155.636 Q 117.702 156.266 116.022 157.071 L 114.167 149.931 Q 116.477 148.846 119.522 148.041 Q 122.567 147.236 125.577 147.236 Q 128.552 147.236 130.775 148.128 Q 132.997 149.021 134.187 150.666 Q 135.377 152.311 135.377 154.481 Q 135.377 156.371 134.765 157.666 Q 134.152 158.961 133.277 159.783 Q 132.402 160.606 130.967 161.586 Q 129.777 162.426 129.06 163.056 Q 128.342 163.686 127.87 164.596 Q 127.397 165.506 127.397 166.766 L 127.397 167.291 L 119.032 167.291 Z M 119.032 174.956 L 119.032 169.216 L 127.362 169.216 L 127.362 174.956 Z" transform="matrix(0.984808, 0.173648, -0.173648, 0.984808, 127.024529, -131.016632)" style="fill: rgb(255, 105, 83); stroke: rgb(0, 0, 0); stroke-linecap: round; stroke-miterlimit: 8; text-transform: capitalize; white-space: pre;"/>
</svg>