<svg id="visual" viewBox="0 0 540 960" width="540" height="960" xmlns="http://www.w3.org/2000/svg" xmlns:xlink="http://www.w3.org/1999/xlink" version="1.1"><rect x="0" y="0" width="540" height="960" fill="#f5f5f5"></rect><g transform="translate(516.8088345297995 -158.4946173229091)"><path d="M324 -325.5C456.5 -275 625.6 -207.6 704.4 -77.4C783.1 52.8 771.5 245.8 684.6 394.1C597.6 542.5 435.3 646.2 266 690.2C96.7 734.2 -79.6 718.6 -226.8 652.3C-374.1 586.1 -492.3 469.3 -586.6 328C-680.8 186.7 -751.1 21 -684.6 -79.8C-618.1 -180.6 -414.8 -216.3 -277.9 -266C-141 -315.7 -70.5 -379.4 12.6 -394.4C95.8 -409.5 191.6 -375.9 324 -325.5" fill="#5a3c82"></path></g></svg>